<?xml version="1.0" encoding="utf-8"?>
<!-- Generator: Adobe Illustrator 17.0.0, SVG Export Plug-In . SVG Version: 6.00 Build 0)  -->
<!DOCTYPE svg PUBLIC "-//W3C//DTD SVG 1.1//EN" "http://www.w3.org/Graphics/SVG/1.1/DTD/svg11.dtd">
<svg version="1.1" id="Camada_1" xmlns="http://www.w3.org/2000/svg" xmlns:xlink="http://www.w3.org/1999/xlink" x="0px" y="0px"
	 width="5527.56px" height="2267.72px" viewBox="0 0 5527.56 2267.72" enable-background="new 0 0 5527.56 2267.72"
	 xml:space="preserve">
<path fill="#E23737" d="M4866.347,129.527c-2.123,9.618-4.38,19.208-6.347,28.857c-25.867,126.908-51.722,253.819-77.523,380.741
	c-26.244,129.097-52.38,258.216-78.647,387.309c-22.578,110.962-45.28,221.898-67.91,332.849
	c-3.328,16.317-6.533,32.658-9.857,48.975c-0.805,3.95-1.858,7.85-2.903,12.214c-97.38,0-194.367,0-293.044,0
	c12.098-47.933,24.066-95.35,36.023-142.725c-14.024-4.062-15.713-3.51-22.768,6.718c-28.056,40.674-64.368,72.336-106.704,97.318
	c-48.396,28.558-100.664,45.803-156.256,53.606c-22.071,3.098-44.169,4.353-66.407,4.533
	c-63.484,0.514-112.858-26.51-149.128-77.621c-33.71-47.502-45.597-101.304-42.697-158.887
	c4.006-79.543,26.063-154.447,58.784-226.472c45.751-100.705,108.339-189.49,190.031-264.348
	c53.172-48.723,112.331-88.13,180.69-112.61c41.472-14.851,84.091-22.509,128.308-21.971c36.03,0.438,71.627,3.761,106.85,11.288
	c2.096,0.448,4.327,0.266,7.376,0.422c3.914-18.254,7.838-36.248,11.625-54.271c21.688-103.212,43.34-206.433,65.045-309.642
	c0.375-1.781,1.25-3.457,1.893-5.182c97.856,0,195.712,0,293.568,0C4866.347,123.596,4866.347,126.561,4866.347,129.527z"/>
<path fill="#E23737" d="M2093.019,120.631c3.546,0.674,7.07,1.775,10.641,1.959c57.231,2.955,112.8,14.488,167.188,32.172
	c0.308,0.1,0.512,0.518,1.904,2.006c-11.156,56.599-22.503,114.16-34.017,172.572c-3.234-1.082-5.974-1.794-8.551-2.892
	c-37.783-16.09-77.252-25.323-118.152-27.846c-24.742-1.526-49.602-2.76-74.358-2.13c-53.447,1.361-92.046,26.365-114.443,75.45
	c-12.576,27.562-18.434,56.934-23.563,86.507c-1.63,9.4-3.024,18.841-4.735,29.572c73.411,0,145.881,0,220.107,0
	c-10.986,56.078-22.86,110.427-34.29,166.505c-23.944,0.174-47.885,0.06-71.822,0.08c-23.719,0.02-47.438,0.004-71.157,0.004
	c-24.043,0-48.087,0-73.262,0c-59.823,299.857-119.535,599.153-179.195,898.194c-8.458,2.316-282.648,2.805-295.78,0.434
	c59.616-298.195,119.227-596.367,178.993-895.313c-11.693-2.238-22.692-0.822-33.587-1.076c-11.112-0.259-22.235-0.057-33.353-0.057
	c-11.048,0-22.095,0-34.425,0c10.917-56.03,21.577-110.738,32.389-166.232c34.846,0,68.846,0,103.359,0
	c1.892-6.344,3.589-11.933,5.225-17.54c21.098-72.295,53.411-138.777,102.408-196.496c62.48-73.603,141.136-120.743,235.025-142.563
	c26.681-6.201,53.657-10.71,81.153-11.407c2.839-0.072,5.651-1.243,8.475-1.904C2054.469,120.631,2073.744,120.631,2093.019,120.631
	z"/>
<path fill="#E23737" d="M2640.123,2213.415c-13.214-1.332-26.4-3.172-39.647-3.915c-90.644-5.083-177.502-25.884-260.716-62.104
	c-216.65-94.299-380.727-288.587-446.61-510.65c-6.832-23.027-11.694-46.641-17.329-70.017c-0.84-3.484-0.898-7.157-1.383-11.308
	c6.136,0,11.588,0,17.762,0c0.878,1.508,2.121,3.288,3.014,5.228c55.692,120.975,141.015,216.631,250.218,291.561
	c79.333,54.434,166.285,91.734,260.466,111.505c58.55,12.292,117.834,17.249,177.716,14.386
	c207.685-9.931,395.721-76.976,566.207-194.842c30.519-21.099,58.899-44.956,85.673-70.677c1.844-1.771,3.533-3.703,6.457-6.786
	c-65.845-50.765-131.797-100.533-196.946-151.86c196.459-1.914,392.582,0.669,590.192,1.068
	c-42.244,212.733-84.246,424.246-126.213,635.586c-0.769,0.172-1.111,0.321-1.444,0.303c-0.331-0.018-0.875-0.124-0.947-0.326
	c-28.969-81.073-57.906-162.158-87.143-244.083c-2.609,1.9-4.734,3.24-6.625,4.853c-125.139,106.837-267.988,179.67-426.703,221.85
	c-51.135,13.59-102.972,23.938-155.635,29.463c-33.111,3.474-66.336,5.856-99.501,8.823c-3.628,0.324-7.2,1.28-10.799,1.943
	C2693.499,2213.415,2666.811,2213.415,2640.123,2213.415z"/>
<path fill="#E23737" d="M974.347,1317.143c1.458-2.782,3.668-5.412,4.264-8.367c20.972-104.124,41.751-208.287,62.645-312.426
	c22.641-112.845,45.387-225.669,68.049-338.51c10.639-52.977,21.18-105.974,31.804-158.955c0.495-2.47,1.366-4.864,2.176-7.689
	c97.304,0,194.192,0,292.883,0c-54.752,276.733-109.31,552.491-164.093,829.378c-4.601,0.163-8.893,0.447-13.185,0.448
	c-90.792,0.026-181.585,0.012-272.377,0.043c-4.055,0.001-8.11,0.343-12.165,0.527
	C974.347,1320.108,974.347,1318.625,974.347,1317.143z"/>
<path fill="#E23737" d="M1510.331,120.631c-5.14,25.007-10.407,49.988-15.392,75.025c-10.551,52.994-20.949,106.018-31.443,159.023
	c-0.348,1.759-1.056,3.447-1.718,5.558c-97.293,0-194.25,0-291.885,0c0.198-3.187,0.051-6.075,0.595-8.828
	c14.834-75.166,29.735-150.319,44.655-225.467c0.359-1.806,1.073-3.542,1.621-5.31
	C1314.619,120.631,1412.475,120.631,1510.331,120.631z"/>
<path fill="#E23737" d="M2327.481,1341.238c-69.542-0.935-136.186-13.694-198.963-44.044
	c-42.669-20.628-79.501-48.685-107.617-87.303c-30.431-41.797-44.801-89.013-45.616-140.337
	c-0.987-62.19,11.156-122.28,31.862-180.637c39.086-110.153,101.888-204.45,190.978-280.505
	c76.766-65.535,164.854-107.631,264.405-125.75c45.471-8.276,91.259-10.896,137.156-8.136
	c70.733,4.254,138.053,21.436,198.627,59.78c54.314,34.382,92.542,81.383,109.832,144.087c8.35,30.282,10.512,61.192,8.761,92.499
	c-5.988,107.083-42.43,203.772-101.069,292.474c-66.247,100.211-152.786,177.523-262.616,227.647
	c-49.752,22.706-101.718,37.99-156.117,44.236C2373.972,1337.905,2350.693,1339.28,2327.481,1341.238z"/>
<path fill="#E23737" d="M3261.401,1341.238c-69.546-0.94-136.163-13.789-198.956-44.094c-33.655-16.243-63.82-37.431-89.24-65.055
	c-42.312-45.981-62.766-100.704-63.826-162.695c-1.044-61.036,10.749-120.083,30.844-177.469
	c40.854-116.672,107.849-215.439,204.103-293.518c74.128-60.131,158.341-98.661,252.442-115.771
	c45.477-8.269,91.263-10.866,137.158-8.103c70.737,4.259,138.049,21.491,198.604,59.856c54.3,34.403,92.506,81.445,109.738,144.159
	c8.319,30.278,10.485,61.195,8.709,92.505c-6.231,109.864-44.325,208.607-105.482,298.903
	c-65.822,97.183-151.019,172.23-258.341,221.122c-49.769,22.673-101.729,37.962-156.13,44.189
	C3307.892,1337.913,3284.613,1339.286,3261.401,1341.238z"/>
</svg>
