<?xml version="1.0" encoding="utf-8"?>
<!-- Generator: Adobe Illustrator 17.0.0, SVG Export Plug-In . SVG Version: 6.00 Build 0)  -->
<!DOCTYPE svg PUBLIC "-//W3C//DTD SVG 1.1//EN" "http://www.w3.org/Graphics/SVG/1.1/DTD/svg11.dtd">
<svg version="1.1" id="Camada_1" xmlns="http://www.w3.org/2000/svg" xmlns:xlink="http://www.w3.org/1999/xlink" x="0px" y="0px"
	 width="2663.038px" height="2267.72px" viewBox="1432.261 0 2663.038 2267.72"
	 enable-background="new 1432.261 0 2663.038 2267.72" xml:space="preserve">
<g>
	<g>
		<g>
			<path fill="#F6A435" d="M4095.299,819.928c-18.789,0-35.177-0.002-51.566,0c-59.839,0.006-119.68-0.213-179.516,0.228
				c-10.782,0.079-17.793-3.156-23.665-12.368c-31.905-50.053-64.782-99.492-96.199-149.845
				c-8.6-13.783-18.134-19.273-34.352-18.427c-33.283,1.736-33.33,0.954-33.397,33.597c-0.092,44.308-0.469,88.619-0.049,132.923
				c0.103,10.885-3.558,14.166-14.226,14.095c-58.923-0.395-117.854-0.526-176.773,0.076c-13.027,0.133-17.439-3.588-17.301-16.946
				c0.568-54.807,0.213-109.626,0.027-164.44c-0.532-156.208-1.001-312.417-2.001-468.623c-0.083-12.913,2.736-18.352,16.656-19.7
				c83.58-8.09,166.889-19.112,251.153-18.315c40.631,0.385,81.277-1.526,121.916-1.483
				c88.415,0.095,182.283,51.998,208.506,159.355c14.97,61.289,14.771,122.047-6.037,182.136
				c-17.041,49.21-51.762,84.155-92.41,114.24c-21.191,15.684-21.176,15.47-6.546,36.438
				c44.149,63.271,88.204,126.607,132.262,189.941C4092.755,814.208,4093.323,815.888,4095.299,819.928z M3677.283,390.159
				c-0.061,0-0.122,0-0.182,0c0,23.724-0.02,47.448,0.012,71.172c0.01,7.384,1.397,14.788,10.653,14.307
				c32.239-1.675,65.158-0.532,96.49-6.949c45.825-9.385,73.858-52.246,68.031-95.463c-6.145-45.571-37.252-70.915-88.523-71.54
				c-21.891-0.267-43.797,0.193-65.69,0.631c-18.079,0.361-20.68,3.069-20.765,20.777
				C3677.202,345.448,3677.283,367.804,3677.283,390.159z"/>
			<path fill="#F6A435" d="M2910.971,509.309c0-99.114,0.088-198.228-0.167-297.341c-0.021-7.936,3.17-10.491,10.252-11.063
				c30.019-2.424,60.015-5.112,90.032-7.554c92.342-7.511,184.694-14.901,277.032-22.458c25.02-2.048,50.035-4.248,74.99-6.951
				c8.273-0.896,11.71,1.148,11.786,9.905c0.415,47.495,1.087,94.989,1.958,142.478c0.156,8.536-4.584,9.466-11.268,9.83
				c-54.699,2.974-109.389,6.1-164.079,9.251c-30.994,1.786-61.969,3.938-92.975,5.456c-12.506,0.613-18.078,6.135-17.748,18.786
				c0.429,16.432,0.072,32.885-0.029,49.329c-0.063,10.212,4.533,15.025,15.095,14.551c53.366-2.398,106.739-4.658,160.116-6.81
				c20.527-0.828,41.077-1.106,61.606-1.911c7.988-0.313,11.644,2.49,11.605,10.978c-0.198,43.851-0.185,87.704,0.091,131.555
				c0.056,8.829-4.383,10.567-11.908,10.816c-45.176,1.499-90.342,3.286-135.512,4.955c-28.288,1.045-56.572,2.295-84.869,2.958
				c-11.25,0.264-16.915,4.51-16.739,16.339c0.299,20.094,0.198,40.199-0.135,60.293c-0.173,10.481,4.343,14.981,14.822,14.639
				c71.195-2.326,142.395-4.507,213.594-6.697c16.886-0.519,33.789-0.65,50.661-1.44c9.146-0.428,11.851,3.782,11.962,12.261
				c0.592,45.206,1.381,90.411,2.428,135.609c0.212,9.181-2.65,13.045-12.454,13.039c-148.457-0.107-296.914-0.034-445.37,0.373
				c-11.823,0.032-13.221-5.529-13.2-15.176c0.208-98.666,0.127-197.333,0.127-296
				C2912.107,509.31,2911.54,509.309,2910.971,509.309z"/>
			<path fill="#F6A435" d="M2359.135,530.265c0-90.914,0.137-181.829-0.189-272.742c-0.037-10.319,2.253-15.843,13.531-17.454
				c85.048-12.151,170.225-22.295,256.392-19.633c49.723,1.536,96.95,10.354,136.927,43.447
				c37.988,31.447,57.783,72.927,65.414,120.014c12.199,75.279-0.565,145.627-48.779,207.004
				c-27.237,34.672-61.902,58.739-106.04,64.917c-44.21,6.188-88.795,9.842-133.29,13.775c-19.668,1.738-20.869,1.919-20.89,21.512
				c-0.041,37.468-0.632,74.949,0.246,112.396c0.32,13.639-4.375,16.867-17.23,16.689c-42.026-0.582-84.08-0.499-126.097,0.473
				c-13.763,0.319-18.071-3.568-17.982-17.618c0.576-90.924,0.295-181.853,0.295-272.78
				C2360.673,530.267,2359.904,530.266,2359.135,530.265z M2522.208,450.873c0.147,0,0.294,0,0.441,0
				c0,18.259,0.533,36.539-0.174,54.771c-0.534,13.776,5.694,19.598,18.69,18.721c19.535-1.318,39.219-1.966,58.514-4.983
				c34.393-5.377,55.824-27.678,62.14-62.184c7.586-41.445-16.98-79.279-56.887-82.429c-24.264-1.915-49.09,1.941-73.497,4.684
				c-3.552,0.399-8.539,8.935-8.809,13.926C2521.592,412.495,2522.208,431.701,2522.208,450.873z"/>
			<path fill="#F6A435" d="M2276.27,534.504c0,89.071,0.01,178.143-0.009,267.215c-0.004,18.524-0.053,18.592-17.912,18.658
				c-36.085,0.132-72.182-0.321-108.25,0.525c-13.439,0.315-18.016-4.512-17.033-17.435c0.794-10.445,0.543-21.02-0.044-31.492
				c-0.198-3.539-2.847-6.94-4.376-10.404c-3.337,1.837-7.148,3.137-9.934,5.598c-16.67,14.728-31.262,32.79-49.977,44.03
				c-48.079,28.876-97.282,22.546-144.348-4.074c-36.221-20.486-55.782-53.842-67.333-92.919
				c-13.119-44.383-14.563-90.289-15.515-135.698c-1.953-93.108-0.389-186.287-0.646-279.436
				c-0.029-10.469,3.467-14.501,13.996-15.21c37.339-2.515,74.729-4.929,111.882-9.242c14.351-1.666,15.778,3.354,15.6,15.188
				c-1.082,72.151-2.296,144.314-2.039,216.468c0.139,39.203,2.571,78.427,4.958,117.582c1.682,27.596,21.318,51.333,46.42,58.673
				c23.867,6.978,48.854-2.151,66.719-24.153c17.159-21.133,24.547-45.517,24.565-72.426c0.069-100.917,0.15-201.835,0.179-302.753
				c0.006-21.881-0.098-22.051,21.066-23.735c40.033-3.187,80.135-5.632,120.095-9.536c11.994-1.172,13.613,2.925,13.577,13.288
				c-0.321,90.43-0.186,180.86-0.186,271.291C2277.243,534.505,2276.756,534.505,2276.27,534.504z"/>
			<path fill="#F6A435" d="M1729.168,448.854c-17.111-7.997-33.213-16.565-50.083-23.17c-26.856-10.514-54.719-16.732-82.516-4.149
				c-10.476,4.741-20.606,12.092-28.374,20.563c-13.826,15.08-10.43,32.896,8.157,41.727c15.101,7.175,31.427,12.223,47.672,16.43
				c22.066,5.715,44.826,8.775,66.837,14.661c54.163,14.484,84.837,50.807,94.875,105.365
				c13.265,72.091-14.872,140.987-72.899,177.896c-23.595,15.008-49.937,22.61-77.401,25.621
				c-67.838,7.437-133.081,0.857-192.531-36.815c-10.074-6.383-13.259-11.35-8.43-23.607
				c12.831-32.568,23.685-65.916,35.941-100.703c5.885,3.428,10.465,6.063,15.014,8.752c39.019,23.069,81.098,35.961,126.493,34.008
				c12.385-0.533,26.015-5.891,36.329-13.011c16.146-11.145,17.269-28.328,1.736-40.22c-12.865-9.851-29.223-16.578-45.069-20.804
				c-35.224-9.393-71.691-14.503-103.961-33.06c-43.125-24.802-66.07-61.575-66.443-111.869
				c-0.506-68.149,23.096-124.414,82.219-161.713c43.608-27.511,92.318-35.692,143.26-32.009
				c35.491,2.566,68.908,12.974,101.472,26.823c8.76,3.726,11.564,7.76,7.944,17.63c-12.733,34.712-24.423,69.806-36.597,104.725
				C1731.966,444.354,1730.407,446.536,1729.168,448.854z"/>
		</g>
	</g>
	<g>
		<path fill="#209DD9" d="M2808.02,1207.14c-13.315-3.105-26.774-5.701-39.922-9.399c-73.741-20.738-123.097-91.612-118.229-169.351
			c5.146-82.182,59.166-141.827,140.741-154.887c61.933-9.916,118.294,0.594,164.562,46.459c3.503,3.473,6.813,7.14,11.515,12.086
			c-20.139,19.205-39.391,37.834-59.138,55.922c-1.744,1.598-7.511,0.827-10.035-0.878c-4.842-3.271-8.401-8.37-13.009-12.068
			c-24.119-19.357-50.891-27.593-80.393-14.601c-30.438,13.404-45.479,38.89-48.048,71.191
			c-2.89,36.328,14.738,66.022,45.688,80.336c28.914,13.373,59.867,6.993,86.862-17.908c14.012-12.925,13.966-12.875,28.547,0.588
			c16.384,15.126,32.861,30.15,50.257,46.097c-24.195,28.617-52.097,49.39-87.828,58.665c-10.135,2.631-20.295,5.167-30.443,7.747
			C2835.437,1207.14,2821.729,1207.14,2808.02,1207.14z"/>
		<path fill="#209DD9" d="M1573.567,910.028c4.269-2.739,6.093-3.343,7.05-4.605c35.783-47.172,122.285-42.791,162.901-2.172
			c8.606,8.607,13.544,9.44,22.865,0.466c52.279-50.331,118.759-38.574,155.028-13.532c26.732,18.457,42.91,43.703,47.726,75.347
			c3.288,21.598,4.614,43.636,4.985,65.508c0.885,52.078,0.427,104.179,1.137,156.262c0.142,10.389-3.287,13.484-13.316,13.303
			c-27.407-0.494-54.837-0.533-82.241,0.049c-10.483,0.222-12.94-3.729-12.98-13.637c-0.213-53-0.716-106.008-2.061-158.989
			c-0.377-14.875-1.981-30.301-6.521-44.343c-5.927-18.33-23.424-28.412-41.49-27.879c-18.208,0.538-31.623,10.436-37.56,30.518
			c-3.578,12.103-5.629,25.054-5.885,37.674c-1.081,53.444-1.606,106.907-1.441,160.361c0.038,12.178-2.393,17.018-15.721,16.428
			c-25.082-1.11-50.249-0.317-75.38-0.329c-17.606-0.009-17.446-0.019-17.415-18.279c0.085-50.717,0.286-101.438-0.158-152.151
			c-0.116-13.177-1.572-26.492-3.935-39.466c-3.603-19.779-14.683-30.633-30.569-32.091c-18.279-1.678-37.206,8.014-43.04,25.151
			c-4.786,14.055-8.048,29.297-8.353,44.089c-1.084,52.512-0.995,105.061-0.448,157.587c0.127,12.233-3.51,15.743-15.522,15.426
			c-29.568-0.782-59.169-0.256-89.404-0.256c-0.508-4.192-1.105-6.749-1.085-9.301c0.794-98.693,1.87-197.386,2.217-296.08
			c0.046-12.995,3.393-17.676,16.907-17.014c22.337,1.095,44.808,1.124,67.141-0.006c13.608-0.689,18.372,4.059,16.648,17.042
			C1573.124,899.053,1573.567,903.127,1573.567,910.028z"/>
		<path fill="#209DD9" d="M3455.141,877.286c35.521,2.049,71.439,1.425,106.484,6.657c97.58,14.566,158.264,110.541,128.918,200.747
			c-20.392,62.679-81.444,109.761-153.66,113.765c-55.125,3.057-110.511,1.297-165.779,1.945
			c-10.869,0.127-9.651-6.855-9.662-13.839c-0.106-68.072-0.287-136.145-0.438-204.217c-0.067-30.152,0.192-60.31-0.335-90.455
			c-0.178-10.194,3.296-13.434,13.513-13.191c26.939,0.641,53.904,0.217,80.858,0.217
			C3455.076,878.373,3455.108,877.829,3455.141,877.286z M3466.766,1040.153c-0.285,0-0.57,0-0.855,0
			c0,22.827,0.287,45.659-0.15,68.478c-0.161,8.428,2.099,13.572,11.229,12.831c18.57-1.507,37.65-1.144,55.549-5.523
			c34.21-8.371,55.648-40.764,55.304-78.904c-0.326-36.097-22.741-66.25-57.443-73.99c-16.288-3.633-33.469-3.235-50.238-4.746
			c-9.89-0.891-13.852,3.05-13.581,13.377C3467.177,994.488,3466.766,1017.326,3466.766,1040.153z"/>
		<path fill="#209DD9" d="M2565.716,1101.314c22.231,32.399,44.048,64.196,67.199,97.937c-6.219,0.5-10.121,1.075-14.024,1.084
			c-30.143,0.076-60.29-0.26-90.425,0.23c-8.874,0.144-14.386-2.779-18.89-10.343c-12.613-21.181-25.761-42.043-38.783-62.979
			c-5.677-9.126-23.348-14.767-31.936-9.408c-2.569,1.603-4.036,6.761-4.086,10.317c-0.284,20.089-0.341,40.198,0.283,60.277
			c0.276,8.867-2.579,12.233-11.617,12.116c-28.311-0.367-56.633-0.357-84.944,0.013c-8.903,0.116-11.819-2.962-11.789-11.971
			c0.325-99.105,0.278-198.21,0.366-297.315c0.005-6.38-0.929-13.644,8.94-13.492c59.767,0.927,119.796-1.254,179.227,3.713
			c61.183,5.114,102.155,47.147,108.809,101.935C2630.074,1033.072,2614.486,1065.162,2565.716,1101.314z M2433.366,996.273
			c0.147,0,0.295,0,0.442,0c0,10.482-0.707,21.04,0.401,31.404c0.365,3.42,5.475,9.086,8.316,9.026
			c14.956-0.315,30.184-0.708,44.739-3.799c17.563-3.731,28.925-20.032,28.811-37.04c-0.117-17.302-11.367-32.643-29.357-36.432
			c-13.694-2.884-27.993-2.886-42.02-4.204c-9.229-0.867-11.924,3.769-11.452,12.339
			C2433.771,977.109,2433.366,986.702,2433.366,996.273z"/>
		<path fill="#209DD9" d="M3305.839,1200.237c-32.147,0-63.57,0.247-94.972-0.428c-2.777-0.06-7.584-6.02-7.762-9.432
			c-0.782-15.025-0.69-30.143,0.039-45.182c0.476-9.818-3.331-12.667-12.724-12.488c-26.479,0.506-52.976,0.539-79.456,0.147
			c-9.169-0.136-11.989,3.47-11.732,12.157c0.418,14.142-0.412,28.324,0.085,42.461c0.324,9.225-2.484,13.194-12.354,13.006
			c-26.021-0.495-52.06-0.377-78.086-0.039c-8.398,0.109-12.437-1.924-12.294-11.432c0.872-58.441,0.651-116.902,1.948-175.331
			c2.209-99.541,80.083-153.445,175.051-141.989c80.449,9.705,128.41,62.359,131.31,143.036
			c2.148,59.764,1.646,119.623,2.278,179.441C3307.183,1195.461,3306.622,1196.765,3305.839,1200.237z M3149.88,1057.625
			c0-0.152,0-0.304,0-0.456c14.117,0,28.267,0.526,42.326-0.381c3.396-0.219,9.459-5.429,9.247-7.912
			c-1.774-20.75-2.576-41.973-7.908-61.921c-5.757-21.537-25.355-33.226-45.495-32.145c-18.676,1.003-36.973,15.422-41.159,36.237
			c-3.829,19.036-4.58,38.747-5.638,58.218c-0.142,2.615,5.702,7.738,9.04,7.975
			C3123.43,1058.177,3136.674,1057.625,3149.88,1057.625z"/>
		<path fill="#209DD9" d="M3897.608,870.22c56.421,1.634,106.577,17.565,144.627,62.461
			c78.159,92.223,29.018,240.275-94.806,266.201c-65.085,13.627-126.129,3.459-174.84-43.085
			c-50.681-48.427-64.769-109.813-40.475-176.108c25.024-68.285,78.279-101.723,149.075-109.393
			C3886.601,869.711,3892.132,870.22,3897.608,870.22z M3972.097,1036.122c-0.609-6.818-1.007-13.662-1.863-20.448
			c-3.618-28.717-22.015-49.744-49.863-57.211c-28.535-7.651-53.708,0.793-71.555,24.637
			c-18.348,24.514-24.386,51.996-16.364,81.621c7.245,26.752,24.852,44.605,51.771,51.523c26.126,6.714,48.813-0.866,67.116-20.653
			C3966.822,1078.854,3971.764,1058.31,3972.097,1036.122z"/>
		<path fill="#209DD9" d="M2024.493,1198.626c-0.184-3.95-0.496-7.54-0.498-11.131c-0.043-97.727,0.163-195.454-0.332-293.178
			c-0.066-12.946,3.23-17.224,16.765-17.097c75.344,0.712,150.698,0.679,226.045,0.288c11.438-0.059,15.35,3.299,14.734,14.735
			c-0.882,16.396-1.092,32.91-0.172,49.294c0.694,12.374-2.883,16.776-15.914,16.574c-39.26-0.609-78.545,0.49-117.812,0.102
			c-11.504-0.114-16.362,2.528-15.969,15.169c0.915,29.426-3.466,25.083,25.614,25.168c30.596,0.09,61.202,0.248,91.784-0.48
			c10.471-0.249,13.554,3.392,13.283,13.389c-0.446,16.42-0.205,32.896,0.644,49.301c0.506,9.776-3.23,12.676-12.607,12.693
			c-35.161,0.066-70.321,1.1-105.48,1.007c-10.529-0.028-14.342,2.895-14.353,13.971c-0.033,33.315-0.496,33.321,32.662,33.307
			c36.99-0.016,73.986,0.335,110.966-0.301c11.099-0.191,14.337,3.543,13.882,14.249c-0.755,17.778-0.506,35.619-0.056,53.417
			c0.208,8.229-2.651,11.43-10.984,11.413c-81.286-0.161-162.573-0.077-243.86-0.161
			C2030.228,1200.355,2027.619,1199.302,2024.493,1198.626z"/>
	</g>
</g>
<g>
	<path fill="#E33838" d="M3536.385,1354.066c-0.843,3.818-1.739,7.626-2.52,11.457c-10.27,50.385-20.535,100.772-30.778,151.163
		c-10.419,51.254-20.796,102.517-31.225,153.77c-8.964,44.054-17.977,88.098-26.962,132.148c-1.321,6.478-2.594,12.966-3.913,19.444
		c-0.32,1.568-0.738,3.117-1.153,4.849c-38.662,0-77.168,0-116.345,0c4.803-19.03,9.555-37.856,14.302-56.665
		c-5.568-1.613-6.238-1.394-9.04,2.667c-11.139,16.149-25.555,28.719-42.364,38.637c-19.214,11.338-39.966,18.185-62.037,21.283
		c-8.763,1.23-17.536,1.728-26.365,1.8c-25.204,0.204-44.807-10.525-59.207-30.817c-13.384-18.859-18.103-40.22-16.952-63.082
		c1.591-31.58,10.348-61.319,23.339-89.914c18.164-39.982,43.013-75.232,75.447-104.952c21.11-19.344,44.598-34.99,71.738-44.709
		c16.465-5.896,33.386-8.937,50.941-8.723c14.304,0.174,28.438,1.493,42.422,4.482c0.832,0.178,1.718,0.106,2.928,0.167
		c1.554-7.247,3.112-14.391,4.615-21.547c8.611-40.977,17.207-81.958,25.824-122.935c0.149-0.707,0.496-1.372,0.752-2.057
		c38.851,0,77.702,0,116.553,0C3536.385,1351.711,3536.385,1352.888,3536.385,1354.066z"/>
	<path fill="#E33838" d="M2435.312,1350.534c1.408,0.268,2.807,0.705,4.225,0.778c22.722,1.173,44.784,5.752,66.377,12.773
		c0.122,0.04,0.203,0.206,0.756,0.796c-4.429,22.471-8.934,45.324-13.505,68.515c-1.284-0.43-2.372-0.712-3.395-1.148
		c-15.001-6.388-30.671-10.054-46.909-11.056c-9.823-0.606-19.693-1.096-29.522-0.846c-21.219,0.54-36.544,10.468-45.436,29.955
		c-4.993,10.943-7.319,22.604-9.355,34.345c-0.647,3.732-1.201,7.48-1.88,11.741c29.146,0,57.918,0,87.387,0
		c-4.362,22.264-9.076,43.842-13.614,66.106c-9.506,0.069-19.011,0.024-28.515,0.032c-9.417,0.008-18.834,0.002-28.251,0.002
		c-9.546,0-19.092,0-29.087,0c-23.751,119.05-47.458,237.877-71.144,356.603c-3.358,0.92-112.218,1.114-117.431,0.172
		c23.669-118.39,47.336-236.771,71.064-355.459c-4.642-0.889-9.009-0.326-13.335-0.427c-4.412-0.103-8.828-0.023-13.242-0.023
		c-4.386,0-8.772,0-13.667,0c4.334-22.245,8.567-43.965,12.859-65.998c13.835,0,27.333,0,41.036,0
		c0.751-2.519,1.425-4.738,2.074-6.964c8.376-28.703,21.205-55.098,40.658-78.013c24.806-29.222,56.034-47.938,93.31-56.601
		c10.593-2.462,21.303-4.252,32.219-4.529c1.127-0.029,2.244-0.494,3.365-0.756
		C2420.007,1350.534,2427.659,1350.534,2435.312,1350.534z"/>
	<path fill="#E33838" d="M2652.524,2181.416c-5.246-0.529-10.481-1.259-15.741-1.554c-35.988-2.018-70.472-10.276-103.51-24.656
		c-86.015-37.439-151.157-114.576-177.314-202.74c-2.712-9.142-4.643-18.518-6.88-27.798c-0.333-1.383-0.356-2.841-0.549-4.49
		c2.436,0,4.601,0,7.052,0c0.349,0.599,0.842,1.305,1.197,2.076c22.111,48.03,55.986,86.007,99.342,115.756
		c31.497,21.611,66.019,36.421,103.411,44.27c23.246,4.88,46.783,6.848,70.557,5.712c82.456-3.943,157.11-30.561,224.797-77.357
		c12.117-8.377,23.384-17.849,34.014-28.06c0.732-0.703,1.403-1.47,2.564-2.694c-26.142-20.155-52.326-39.914-78.192-60.292
		c77.999-0.76,155.864,0.266,234.319,0.424c-16.772,84.46-33.448,168.435-50.109,252.342c-0.305,0.068-0.441,0.127-0.573,0.12
		s-0.347-0.049-0.376-0.129c-11.501-32.188-22.99-64.38-34.598-96.906c-1.036,0.754-1.879,1.286-2.63,1.927
		c-49.683,42.417-106.397,71.333-169.411,88.079c-20.302,5.396-40.882,9.504-61.791,11.698c-13.146,1.379-26.337,2.325-39.504,3.503
		c-1.44,0.129-2.859,0.508-4.288,0.771C2673.716,2181.416,2663.12,2181.416,2652.524,2181.416z"/>
	<path fill="#E33838" d="M1991.174,1825.576c0.579-1.104,1.456-2.149,1.693-3.322c8.326-41.339,16.576-82.695,24.871-124.04
		c8.989-44.802,18.02-89.596,27.017-134.396c4.224-21.033,8.409-42.074,12.627-63.109c0.197-0.981,0.542-1.931,0.864-3.053
		c38.632,0,77.099,0,116.281,0c-21.738,109.869-43.399,219.351-65.149,329.281c-1.827,0.065-3.531,0.177-5.235,0.178
		c-36.046,0.01-72.093,0.005-108.14,0.017c-1.61,0-3.22,0.136-4.83,0.209C1991.174,1826.753,1991.174,1826.164,1991.174,1825.576z"
		/>
	<path fill="#E33838" d="M2203.972,1350.534c-2.041,9.928-4.132,19.846-6.111,29.787c-4.189,21.04-8.317,42.092-12.483,63.136
		c-0.138,0.698-0.419,1.369-0.682,2.207c-38.627,0-77.122,0-115.885,0c0.078-1.265,0.02-2.412,0.236-3.505
		c5.889-29.843,11.805-59.68,17.729-89.515c0.143-0.717,0.426-1.406,0.644-2.108
		C2126.27,1350.534,2165.121,1350.534,2203.972,1350.534z"/>
	<path fill="#E33838" d="M2528.399,1835.142c-27.61-0.371-54.069-5.437-78.993-17.486c-16.94-8.19-31.563-19.329-42.726-34.661
		c-12.082-16.594-17.787-35.34-18.11-55.717c-0.392-24.691,4.429-48.548,12.65-71.717c15.518-43.733,40.452-81.171,75.823-111.367
		c30.478-26.019,65.451-42.732,104.975-49.926c18.053-3.286,36.232-4.326,54.454-3.23c28.083,1.689,54.81,8.51,78.859,23.734
		c21.564,13.65,36.741,32.311,43.606,57.206c3.315,12.023,4.173,24.295,3.478,36.724c-2.377,42.514-16.846,80.902-40.127,116.119
		c-26.302,39.786-60.659,70.481-104.264,90.381c-19.753,9.015-40.384,15.083-61.982,17.563
		C2546.856,1833.819,2537.614,1834.365,2528.399,1835.142z"/>
	<path fill="#E33838" d="M2899.186,1835.142c-27.611-0.373-54.06-5.474-78.99-17.506c-13.362-6.449-25.338-14.861-35.43-25.828
		c-16.799-18.255-24.92-39.982-25.34-64.594c-0.415-24.233,4.268-47.676,12.246-70.459c16.22-46.321,42.819-85.534,81.033-116.533
		c29.43-23.873,62.865-39.171,100.225-45.964c18.055-3.283,36.233-4.314,54.455-3.217c28.084,1.691,54.809,8.532,78.85,23.764
		c21.558,13.659,36.727,32.336,43.569,57.234c3.303,12.021,4.163,24.296,3.458,36.727c-2.474,43.618-17.598,82.822-41.879,118.671
		c-26.133,38.584-59.958,68.379-102.567,87.79c-19.759,9.002-40.389,15.072-61.987,17.544
		C2917.644,1833.822,2908.401,1834.367,2899.186,1835.142z"/>
</g>
</svg>
