<?xml version="1.0" encoding="utf-8"?>
<!-- Generator: Adobe Illustrator 17.0.0, SVG Export Plug-In . SVG Version: 6.00 Build 0)  -->
<!DOCTYPE svg PUBLIC "-//W3C//DTD SVG 1.1//EN" "http://www.w3.org/Graphics/SVG/1.1/DTD/svg11.dtd">
<svg version="1.1" id="Camada_1" xmlns="http://www.w3.org/2000/svg" xmlns:xlink="http://www.w3.org/1999/xlink" x="0px" y="0px"
	 width="5527.56px" height="2267.72px" viewBox="0 0 5527.56 2267.72" enable-background="new 0 0 5527.56 2267.72"
	 xml:space="preserve">
<g>
	<g>
		<g>
			<path fill="#FFA62E" d="M5397.056,1432.502c-37.158,0-69.568-0.003-101.979,0c-118.341,0.012-236.685-0.422-355.02,0.45
				c-21.324,0.157-35.188-6.241-46.801-24.46c-63.096-98.987-128.116-196.761-190.248-296.341
				c-17.007-27.258-35.863-38.116-67.935-36.443c-65.823,3.434-65.915,1.886-66.048,66.443
				c-0.181,87.626-0.928,175.258-0.097,262.875c0.204,21.526-7.037,28.016-28.134,27.875c-116.529-0.781-233.073-1.04-349.595,0.15
				c-25.763,0.263-34.488-7.096-34.215-33.513c1.124-108.39,0.422-216.802,0.053-325.205
				c-1.052-308.925-1.979-617.851-3.958-926.771c-0.164-25.537,5.41-36.294,32.939-38.959
				c165.291-15.999,330.048-37.797,496.692-36.22c80.353,0.761,160.738-3.018,241.107-2.932
				c174.854,0.187,360.491,102.833,412.351,315.149c29.606,121.209,29.212,241.367-11.939,360.202
				c-33.701,97.321-102.367,166.429-182.754,225.926c-41.909,31.018-41.879,30.595-12.945,72.061
				c87.311,125.128,174.437,250.384,261.569,375.636C5392.024,1421.191,5393.149,1424.513,5397.056,1432.502z M4570.366,582.571
				c-0.12,0-0.24,0-0.36,0c0,46.918-0.04,93.836,0.024,140.753c0.02,14.603,2.763,29.245,21.069,28.294
				c63.757-3.312,128.859-1.052,190.823-13.742c90.625-18.56,146.066-103.325,134.542-188.793
				c-12.152-90.124-73.672-140.245-175.068-141.482c-43.293-0.528-86.615,0.382-129.912,1.248
				c-35.754,0.714-40.899,6.07-41.066,41.089C4570.207,494.148,4570.366,538.36,4570.366,582.571z"/>
			<path fill="#FFA62E" d="M3054.871,818.208c0-196.012,0.174-392.025-0.331-588.036c-0.041-15.695,6.27-20.747,20.275-21.878
				c59.366-4.793,118.689-10.11,178.052-14.939c182.62-14.855,365.259-29.469,547.872-44.414
				c49.481-4.05,98.952-8.402,148.305-13.746c16.361-1.771,23.158,2.27,23.309,19.588c0.82,93.929,2.149,187.855,3.872,281.771
				c0.309,16.881-9.066,18.721-22.285,19.44c-108.175,5.882-216.334,12.063-324.49,18.296
				c-61.295,3.532-122.552,7.787-183.872,10.791c-24.733,1.212-35.752,12.133-35.099,37.153c0.849,32.496,0.143,65.036-0.057,97.555
				c-0.124,20.196,8.964,29.715,29.853,28.777c105.54-4.743,211.092-9.212,316.653-13.468c40.596-1.637,81.236-2.188,121.835-3.779
				c15.798-0.619,23.028,4.924,22.952,21.71c-0.392,86.722-0.366,173.448,0.179,260.169c0.11,17.461-8.667,20.898-23.55,21.391
				c-89.342,2.964-178.665,6.498-267.996,9.799c-55.943,2.067-111.879,4.538-167.841,5.85c-22.249,0.522-33.452,8.92-33.104,32.313
				c0.592,39.738,0.392,79.5-0.267,119.239c-0.343,20.728,8.589,29.627,29.312,28.95c140.799-4.6,281.607-8.913,422.414-13.245
				c33.395-1.027,66.823-1.286,100.19-2.847c18.088-0.846,23.436,7.48,23.656,24.248c1.17,89.402,2.731,178.802,4.802,268.187
				c0.42,18.156-5.24,25.799-24.629,25.786c-293.595-0.211-587.192-0.068-880.786,0.737c-23.382,0.064-26.146-10.935-26.105-30.012
				c0.411-195.127,0.252-390.256,0.252-585.384C3057.118,818.209,3055.995,818.208,3054.871,818.208z"/>
			<path fill="#FFA62E" d="M1963.534,859.651c0-179.796,0.271-359.593-0.374-539.387c-0.073-20.408,4.455-31.331,26.759-34.518
				c168.195-24.031,336.645-44.092,507.053-38.828c98.335,3.038,191.733,20.476,270.793,85.923
				c75.126,62.191,114.274,144.223,129.365,237.346c24.126,148.876-1.118,287.999-96.468,409.382
				c-53.864,68.569-122.42,116.166-209.709,128.384c-87.431,12.238-175.606,19.464-263.6,27.242
				c-38.896,3.438-41.272,3.795-41.314,42.544c-0.08,74.098-1.25,148.223,0.486,222.279c0.632,26.973-8.653,33.357-34.076,33.005
				c-83.112-1.15-166.281-0.987-249.375,0.936c-27.219,0.63-35.739-7.056-35.563-34.842c1.139-179.815,0.583-359.641,0.583-539.463
				C1966.574,859.654,1965.054,859.652,1963.534,859.651z M2286.035,702.641c0.291,0,0.581,0,0.872,0
				c0,36.11,1.054,72.262-0.344,108.318c-1.056,27.245,11.26,38.757,36.963,37.023c38.634-2.607,77.562-3.889,115.721-9.855
				c68.018-10.633,110.4-54.738,122.891-122.978c15.003-81.964-33.58-156.785-112.502-163.015
				c-47.985-3.788-97.082,3.839-145.351,9.263c-7.025,0.789-16.886,17.671-17.421,27.54
				C2284.815,626.743,2286.035,664.725,2286.035,702.641z"/>
			<path fill="#FFA62E" d="M1799.654,868.034c0,176.152,0.021,352.305-0.017,528.457c-0.008,36.633-0.106,36.769-35.423,36.898
				c-71.364,0.261-142.751-0.635-214.08,1.039c-26.578,0.624-35.629-8.924-33.686-34.48c1.571-20.657,1.074-41.57-0.087-62.28
				c-0.392-6.998-5.63-13.724-8.654-20.575c-6.6,3.632-14.136,6.204-19.645,11.071c-32.968,29.127-61.826,64.847-98.837,87.076
				c-95.084,57.107-192.389,44.589-285.47-8.056c-71.633-40.515-110.317-106.48-133.16-183.761
				c-25.944-87.773-28.8-178.56-30.684-268.363c-3.862-184.134-0.77-368.41-1.277-552.626c-0.057-20.705,6.856-28.678,27.68-30.081
				c73.844-4.974,147.787-9.747,221.264-18.278c28.381-3.295,31.203,6.633,30.852,30.037c-2.14,142.69-4.54,285.402-4.033,428.097
				c0.275,77.529,5.084,155.102,9.805,232.536c3.327,54.575,42.159,101.519,91.803,116.034c47.2,13.8,96.617-4.253,131.948-47.767
				c33.935-41.794,48.545-90.016,48.581-143.233c0.136-199.579,0.297-399.159,0.354-598.739c0.012-43.272-0.194-43.609,41.662-46.94
				c79.171-6.302,158.478-11.138,237.505-18.859c23.721-2.318,26.922,5.785,26.85,26.278
				c-0.635,178.838-0.367,357.678-0.367,536.518C1801.579,868.036,1800.616,868.035,1799.654,868.034z"/>
			<path fill="#FFA62E" d="M717.679,698.649c-33.839-15.816-65.683-32.76-99.047-45.822
				c-53.112-20.793-108.215-33.089-163.188-8.206c-20.717,9.377-40.751,23.913-56.113,40.667
				c-27.343,29.822-20.627,65.056,16.131,82.522c29.864,14.19,62.151,24.172,94.278,32.492
				c43.638,11.302,88.651,17.354,132.181,28.995c107.116,28.644,167.777,100.478,187.63,208.375
				c26.234,142.571-29.412,278.823-144.168,351.816c-46.662,29.68-98.758,44.715-153.073,50.67
				c-134.159,14.708-263.187,1.694-380.758-72.808c-19.922-12.624-26.222-22.446-16.672-46.687
				c25.376-64.408,46.84-130.358,71.079-199.156c11.638,6.78,20.697,11.991,29.692,17.309
				c77.166,45.623,160.384,71.118,250.159,67.255c24.493-1.054,51.448-11.651,71.846-25.731
				c31.931-22.041,34.151-56.022,3.433-79.541c-25.443-19.481-57.792-32.786-89.13-41.143
				c-69.661-18.577-141.779-28.681-205.598-65.382C181.075,945.225,135.698,872.5,134.96,773.037
				c-1-134.775,45.676-246.048,162.6-319.812c86.242-54.408,182.572-70.587,283.318-63.303
				c70.189,5.074,136.276,25.659,200.676,53.046c17.325,7.368,22.87,15.347,15.71,34.866
				c-25.181,68.649-48.301,138.052-72.376,207.11C723.213,689.749,720.13,694.064,717.679,698.649z"/>
		</g>
	</g>
	<g>
		<path fill="#009FE3" d="M2851.27,2198.271c-26.333-6.14-52.949-11.274-78.952-18.587
			c-145.834-41.012-243.443-181.176-233.816-334.917c10.178-162.527,117.009-280.483,278.336-306.313
			c122.481-19.61,233.944,1.174,325.446,91.88c6.927,6.868,13.474,14.12,22.772,23.902c-39.828,37.98-77.901,74.822-116.954,110.594
			c-3.45,3.161-14.854,1.635-19.845-1.737c-9.575-6.469-16.615-16.553-25.728-23.866c-47.698-38.282-100.645-54.569-158.988-28.876
			c-60.196,26.509-89.942,76.91-95.023,140.791c-5.715,71.845,29.147,130.568,90.354,158.877
			c57.182,26.448,118.396,13.829,171.783-35.415c27.711-25.561,27.62-25.462,56.457,1.163c32.401,29.914,64.988,59.626,99.39,91.164
			c-47.849,56.595-103.029,97.675-173.694,116.018c-20.044,5.203-40.136,10.219-60.206,15.321
			C2905.491,2198.271,2878.381,2198.271,2851.27,2198.271z"/>
		<path fill="#009FE3" d="M409.955,1610.689c8.443-5.417,12.05-6.612,13.943-9.108c70.767-93.29,241.836-84.625,322.16-4.295
			c17.02,17.021,26.785,18.67,45.22,0.922c103.389-99.537,234.863-76.286,306.59-26.762c52.866,36.502,84.86,86.43,94.385,149.009
			c6.502,42.713,9.124,86.296,9.859,129.552c1.75,102.993,0.844,206.03,2.248,309.032c0.28,20.545-6.5,26.666-26.334,26.309
			c-54.201-0.976-108.448-1.054-162.644,0.097c-20.731,0.44-25.591-7.375-25.67-26.969c-0.422-104.816-1.417-209.646-4.075-314.425
			c-0.746-29.417-3.917-59.924-12.896-87.694c-11.722-36.251-46.325-56.19-82.052-55.134c-36.01,1.064-62.539,20.639-74.281,60.354
			c-7.077,23.936-11.133,49.548-11.638,74.507c-2.138,105.693-3.177,211.425-2.849,317.137c0.075,24.083-4.732,33.656-31.09,32.489
			c-49.604-2.196-99.374-0.627-149.075-0.651c-34.819-0.018-34.502-0.038-34.441-36.15c0.168-100.301,0.566-200.608-0.313-300.902
			c-0.229-26.06-3.108-52.392-7.782-78.05c-7.125-39.116-29.038-60.581-60.454-63.465c-36.149-3.318-73.58,15.848-85.119,49.739
			c-9.464,27.796-15.916,57.94-16.52,87.192c-2.144,103.851-1.968,207.774-0.886,311.651c0.252,24.193-6.941,31.135-30.698,30.507
			c-58.474-1.547-117.016-0.507-176.81-0.507c-1.004-8.29-2.186-13.347-2.145-18.394c1.571-195.181,3.698-390.36,4.385-585.543
			c0.09-25.699,6.71-34.957,33.436-33.647c44.174,2.166,88.614,2.222,132.781-0.012c26.912-1.362,36.334,8.028,32.923,33.704
			C409.079,1588.984,409.955,1597.041,409.955,1610.689z"/>
		<path fill="#009FE3" d="M4131.049,1545.937c70.247,4.052,141.282,2.819,210.589,13.165
			c192.979,28.807,312.991,218.611,254.955,397.007c-40.327,123.958-161.067,217.068-303.886,224.988
			c-109.017,6.046-218.553,2.566-327.852,3.847c-21.496,0.252-19.087-13.557-19.109-27.368
			c-0.209-134.623-0.567-269.246-0.865-403.869c-0.132-59.631,0.38-119.273-0.663-178.888c-0.352-20.161,6.518-26.568,26.724-26.088
			c53.277,1.267,106.604,0.429,159.91,0.429C4130.919,1548.086,4130.984,1547.011,4131.049,1545.937z M4154.039,1868.03
			c-0.564,0-1.128,0-1.692,0c0,45.144,0.568,90.298-0.296,135.426c-0.319,16.667,4.152,26.84,22.208,25.375
			c36.724-2.981,74.459-2.262,109.856-10.923c67.655-16.554,110.053-80.616,109.372-156.044
			c-0.645-71.388-44.974-131.02-113.603-146.326c-32.211-7.184-66.189-6.397-99.352-9.386c-19.559-1.763-27.394,6.032-26.859,26.455
			C4154.852,1777.72,4154.039,1822.886,4154.039,1868.03z"/>
		<path fill="#009FE3" d="M2372.078,1988.986c43.965,64.074,87.112,126.957,132.897,193.685
			c-12.299,0.988-20.015,2.125-27.735,2.144c-59.611,0.15-119.233-0.515-178.828,0.454c-17.55,0.285-28.451-5.496-37.358-20.454
			c-24.943-41.889-50.947-83.147-76.7-124.551c-11.226-18.049-46.174-29.205-63.158-18.605c-5.081,3.171-7.982,13.371-8.081,20.404
			c-0.562,39.73-0.675,79.498,0.559,119.206c0.545,17.536-5.101,24.192-22.974,23.961c-55.989-0.726-112-0.706-167.989,0.025
			c-17.606,0.23-23.373-5.857-23.315-23.675c0.643-195.994,0.549-391.99,0.723-587.985c0.011-12.617-1.837-26.984,17.681-26.682
			c118.198,1.833,236.914-2.48,354.448,7.343c120.998,10.113,202.027,93.241,215.185,201.591
			C2499.356,1854.026,2468.527,1917.49,2372.078,1988.986z M2110.337,1781.25c0.291,0,0.583,0,0.874,0
			c0,20.73-1.398,41.609,0.792,62.105c0.723,6.763,10.827,17.97,16.446,17.851c29.578-0.624,59.694-1.4,88.478-7.514
			c34.734-7.378,57.204-39.616,56.978-73.253c-0.231-34.218-22.479-64.556-58.058-72.049c-27.082-5.703-55.36-5.708-83.1-8.314
			c-18.252-1.715-23.581,7.453-22.648,24.402C2111.138,1743.351,2110.337,1762.323,2110.337,1781.25z"/>
		<path fill="#009FE3" d="M3835.781,2184.62c-63.575,0-125.719,0.488-187.822-0.846c-5.493-0.118-14.999-11.906-15.35-18.654
			c-1.546-29.714-1.364-59.613,0.078-89.354c0.942-19.417-6.588-25.052-25.164-24.697c-52.365,1.001-104.767,1.066-157.136,0.29
			c-18.133-0.269-23.71,6.862-23.203,24.042c0.827,27.969-0.814,56.015,0.169,83.973c0.642,18.244-4.912,26.093-24.432,25.721
			c-51.46-0.978-102.957-0.745-154.426-0.077c-16.609,0.216-24.595-3.805-24.314-22.609c1.725-115.575,1.287-231.192,3.852-346.744
			c4.368-196.857,158.376-303.461,346.19-280.804c159.1,19.193,253.95,123.325,259.685,282.876
			c4.248,118.192,3.256,236.573,4.505,354.871C3838.44,2175.175,3837.329,2177.754,3835.781,2184.62z M3527.349,1902.584
			c0-0.3,0-0.601,0-0.901c27.918,0,55.903,1.04,83.706-0.753c6.715-0.433,18.707-10.737,18.287-15.647
			c-3.508-41.035-5.095-83.007-15.64-122.458c-11.385-42.592-50.143-65.71-89.973-63.571c-36.934,1.983-73.119,30.5-81.399,71.665
			c-7.573,37.647-9.058,76.629-11.15,115.135c-0.281,5.172,11.277,15.302,17.878,15.772
			C3475.04,1903.675,3501.233,1902.584,3527.349,1902.584z"/>
		<path fill="#009FE3" d="M5006.092,1531.963c111.58,3.231,210.772,34.738,286.022,123.526
			c154.572,182.384,57.387,475.18-187.493,526.453c-128.715,26.95-249.44,6.841-345.773-85.207
			c-100.229-95.771-128.091-217.171-80.045-348.279c49.488-135.043,154.807-201.173,294.818-216.34
			C4984.325,1530.956,4995.263,1531.963,5006.092,1531.963z M5153.406,1860.059c-1.204-13.483-1.991-27.018-3.683-40.439
			c-7.156-56.793-43.538-98.377-98.612-113.143c-56.432-15.131-106.215,1.568-141.511,48.724
			c-36.287,48.481-48.228,102.83-32.363,161.417c14.327,52.906,49.148,88.213,102.384,101.894
			c51.669,13.278,96.534-1.713,132.733-40.845C5142.974,1944.567,5152.748,1903.938,5153.406,1860.059z"/>
		<path fill="#009FE3" d="M1301.729,2181.435c-0.364-7.812-0.981-14.912-0.984-22.013c-0.085-193.269,0.323-386.54-0.656-579.804
			c-0.13-25.603,6.388-34.063,33.155-33.811c149.003,1.408,298.027,1.342,447.038,0.57c22.621-0.117,30.356,6.524,29.139,29.141
			c-1.744,32.426-2.159,65.085-0.341,97.487c1.373,24.472-5.702,33.176-31.472,32.777c-77.643-1.205-155.334,0.97-232.99,0.202
			c-22.75-0.225-32.358,5-31.581,29.998c1.809,58.195-6.855,49.606,50.656,49.774c60.508,0.177,121.037,0.49,181.516-0.95
			c20.708-0.493,26.805,6.709,26.269,26.479c-0.881,32.474-0.405,65.056,1.273,97.501c1,19.334-6.389,25.068-24.933,25.103
			c-69.536,0.131-139.071,2.176-208.602,1.991c-20.822-0.055-28.363,5.726-28.385,27.63c-0.066,65.885-0.981,65.897,64.595,65.869
			c73.153-0.031,146.319,0.662,219.451-0.595c21.95-0.377,28.354,7.006,27.454,28.18c-1.493,35.158-1,70.442-0.11,105.641
			c0.411,16.273-5.243,22.604-21.722,22.571c-160.756-0.318-321.512-0.153-482.269-0.319
			C1313.07,2184.853,1307.911,2182.77,1301.729,2181.435z"/>
	</g>
</g>
</svg>
